<svg xmlns="http://www.w3.org/2000/svg" viewBox="0 0 188.26 53.59"><defs><style>.cls-1{fill:#fff;}.cls-2{fill:#7254a3;}.cls-3{fill:#fdb913;}</style></defs><g id="Layer_2" data-name="Layer 2"><g id="Layer_1-2" data-name="Layer 1"><path class="cls-1" d="M21.89,31.72H19.63a2.75,2.75,0,0,1-2.22-1.12l-11-14.71V31.72H0V5.88H1.77A9.29,9.29,0,0,1,9.21,9.6l9,12.08V0h3.65a2.77,2.77,0,0,1,2.77,2.78V28.94a2.77,2.77,0,0,1-2.77,2.78"/><polygon class="cls-1" points="50.68 5.88 41.43 19.3 41.43 31.72 35.01 31.72 35.01 19.3 26.07 5.88 33.74 5.88 38.41 12.92 42.9 5.88 50.68 5.88"/><polygon class="cls-1" points="69.38 11.48 64.06 11.48 64.06 31.72 57.64 31.72 57.64 11.48 52.41 11.48 52.41 5.88 69.38 5.88 69.38 11.48"/><path class="cls-1" d="M82.89,14.27a3.12,3.12,0,0,0-1-2.32A4.09,4.09,0,0,0,79,11.06H77.81V17.5H79a4,4,0,0,0,2.93-.89,3.18,3.18,0,0,0,1-2.34m9,17.52h-8l-6.13-9.92v9.92H71.38V6h10q4.38,0,6.48,2.75a8.3,8.3,0,0,1,1.7,5.2,7.58,7.58,0,0,1-2,5.48,6.69,6.69,0,0,1-3.43,1.81Z"/><path class="cls-1" d="M113.84,18.88a7.13,7.13,0,0,0-1.67-4.72,6.85,6.85,0,0,0-9.09-1.43,7,7,0,0,0-2.83,3.65,7.48,7.48,0,0,0-.44,2.5,7.28,7.28,0,0,0,1.67,4.69,6.88,6.88,0,0,0,10.69,0,7.2,7.2,0,0,0,1.67-4.71m6.66,0a13.92,13.92,0,0,1-3.35,9.24,12.82,12.82,0,0,1-10.33,4.53A12.81,12.81,0,0,1,96.5,28.12a13.91,13.91,0,0,1-3.34-9.24,14.68,14.68,0,0,1,.9-4.93,13.78,13.78,0,0,1,2.42-4.32A12.82,12.82,0,0,1,106.82,5.1a12.82,12.82,0,0,1,10.33,4.53,13.93,13.93,0,0,1,3.35,9.25"/><path class="cls-1" d="M149.32,17.37a21.69,21.69,0,0,1-.9,6.85,12,12,0,0,1-4.54,6.21,12.56,12.56,0,0,1-7.24,2.08q-6.81,0-10.44-4.84a14.17,14.17,0,0,1-2.75-8.77,14.24,14.24,0,0,1,3.22-9.48C129.1,6.5,132.51,5,136.87,5a11.81,11.81,0,0,1,7.42,2.35A13,13,0,0,1,148,12.31l-6.08,2.63a7.57,7.57,0,0,0-1.81-2.71A5.3,5.3,0,0,0,136.57,11c-2.8,0-4.75,1.51-5.85,4.51a9.87,9.87,0,0,0-.62,3.44A8.78,8.78,0,0,0,132.34,25a5.65,5.65,0,0,0,4.41,1.83,5.1,5.1,0,0,0,3.88-1.49,5.23,5.23,0,0,0,1.24-2.9h-5.29V17.37Z"/><rect class="cls-1" x="153.39" y="5.88" width="6.42" height="25.84"/><polygon class="cls-1" points="188.26 31.72 181.84 31.72 170.02 15.89 170.02 31.72 163.6 31.72 163.6 5.88 170.02 5.88 181.84 21.68 181.84 5.88 188.26 5.88 188.26 31.72"/><rect class="cls-2" x="153.76" y="44.45" width="34.38" height="9.14"/><rect class="cls-3" y="44.45" width="153.76" height="9.14"/></g></g></svg>